# xmcd
#
# Track frame offsets:
#	150
#	32326
#	77775
#	115055
#	157388
#	201250
#	234427
#	269789
#
# Disc length: 4360 seconds
#
# Revision: 1
# Processed by: cddbd v1.5.1PL0 Copyright (c) Steve Scherf et al.
# Submitted via: audiograbber 1.82.01
#
DISCID=6b110608
DTITLE=Rory Gallagher - 1974-09-03 - My Father's Place,Roslyn NY  - "Denim and A 
DTITLE=Strat"
DYEAR=1900
DGENRE=
TTITLE0=Rory Gallagher - Tattoo'd Lady
TTITLE1=Rory Gallagher - Early In The Morning
TTITLE2=Rory Gallagher - Cradle Rock
TTITLE3=Rory Gallagher - Just A Little Bit
TTITLE4=Rory Gallagher - Walk On Hot Coals
TTITLE5=Rory Gallagher - A Million Miles Away
TTITLE6=Rory Gallagher - Hands Off
TTITLE7=Rory Gallagher - Bullfrog Blues
EXTD=
EXTT0=
EXTT1=
EXTT2=
EXTT3=
EXTT4=
EXTT5=
EXTT6=
EXTT7=
PLAYORDER=
